P3
3 2
255
255 255 225 0 0 0 0 0 0 
0 0 0 0 0 0 0 0 0 
